<?xml version="1.0" encoding="utf-8"?>
<!-- Generator: Adobe Illustrator 23.0.1, SVG Export Plug-In . SVG Version: 6.00 Build 0)  -->
<svg version="1.1" id="Calque_1" xmlns="http://www.w3.org/2000/svg" xmlns:xlink="http://www.w3.org/1999/xlink" x="0px" y="0px"
	 viewBox="0 0 262.63 298.1" style="enable-background:new 0 0 262.63 298.1;" xml:space="preserve">
<g id="_x31_gJydV.tif">
	<g>
		<path fill="#000" d="M63.94,123.33c0-6.56,0-13.13,0-19.69c13.59,0,27.18,0,40.77,0c0.19-0.55,0.39-1.1,0.58-1.65
			c-6.72-6.77-13.51-13.48-20.16-20.33c-10.16-10.46-10.72-7.31,0.25-18.71c3.28-3.41,5.74-3.52,9.06-0.06
			c7.34,7.66,14.94,15.06,22.48,22.53c1.05,1.04,2.01,2.89,3.68,2.3c1.79-0.63,1.11-2.68,1.13-4.13c0.07-8.49,0.04-16.97,0.04-25.46
			c0-12.99,0-12.77,13-12.75c5.38,0.01,7.11,2.12,7,7.22c-0.21,10.03-0.06,20.06-0.02,30.09c0.01,1.3-0.47,3.05,0.84,3.74
			c1.8,0.97,2.7-0.99,3.71-1.98c5.51-5.4,10.88-10.94,16.41-16.32c10.96-10.67,7.87-11.1,19.62,0.28c3.02,2.92,3.18,5.16,0.05,8.12
			c-5.75,5.43-11.3,11.07-16.78,16.76c-2.84,2.96-6.41,5.34-8.85,10.23c10.27,0,19.66,0,29.04,0c13.26,0,13.1,0,12.85,13.46
			c-0.09,4.71-1.81,6.59-6.5,6.51c-10.03-0.16-20.06-0.07-30.09,0.02c-1.61,0.01-3.92-0.82-4.61,1.23c-0.52,1.54,1.4,2.58,2.46,3.64
			c7.2,7.26,14.45,14.46,21.64,21.73c1.77,1.78,3.51,3.43,1.47,6.43c-7.72,11.36-11.18,11.82-20.69,2.31
			c-5.05-5.05-10.06-10.13-15.16-15.12c-1.31-1.28-2.27-3.16-5.59-3.4c0,13.33,0,26.53,0,39.73c-6.56,0-13.13,0-19.69,0
			c0-13.58,0-27.16,0-41.21c-3.14,0.66-4.23,2.34-5.53,3.63c-5.48,5.42-10.84,10.96-16.37,16.32c-10.57,10.23-7.24,10.97-19.09-0.5
			c-3.31-3.21-2.97-5.59,0.16-8.62c7.2-6.96,14.23-14.1,21.25-21.25c1.11-1.13,3.38-2.1,2.36-4.1c-0.75-1.47-2.8-0.85-4.29-0.86
			C88.21,123.42,76.07,123.38,63.94,123.33z"/>
	</g>
</g>
</svg>
